<?xml version="1.0" standalone="no"?>
<!DOCTYPE svg PUBLIC "-//W3C//DTD SVG 20010904//EN"
 "http://www.w3.org/TR/2001/REC-SVG-20010904/DTD/svg10.dtd">
<svg version="1.0" xmlns="http://www.w3.org/2000/svg"
 width="300.000000pt" height="300.000000pt" viewBox="0 0 300.000000 300.000000"
 preserveAspectRatio="xMidYMid meet">
<metadata>
Created by potrace 1.10, written by Peter Selinger 2001-2011
</metadata>
<g transform="translate(0.000000,300.000000) scale(0.100000,-0.100000)"
fill="#000000" stroke="none">
<path d="M1085 1989 c-99 -65 -188 -124 -197 -129 -16 -10 -18 -5 -18 60 l0
70 -100 0 -100 0 0 -135 0 -135 -72 -46 c-161 -103 -224 -143 -236 -154 -14
-13 -7 -30 12 -30 11 0 665 418 864 551 l42 29 443 -287 c243 -157 453 -288
465 -291 66 -13 -10 45 -318 243 -184 119 -338 219 -341 223 -4 4 26 28 66 53
l72 47 139 -92 c77 -50 265 -174 419 -275 261 -172 320 -204 320 -174 0 10
-835 566 -871 580 -7 2 -47 -18 -88 -47 -42 -28 -83 -53 -91 -56 -8 -4 -55 20
-110 55 -52 34 -101 61 -108 60 -6 0 -93 -54 -192 -120z m-255 -103 l-5 -64
-54 -36 c-29 -20 -56 -36 -60 -36 -3 0 -6 45 -6 100 l0 100 65 0 65 0 -5 -64z"/>
<path d="M321 1244 c-24 -31 -25 -35 -9 -69 13 -28 45 -40 82 -31 27 7 44 36
21 36 -8 0 -15 -4 -15 -10 0 -5 -13 -10 -30 -10 -38 0 -57 31 -41 66 11 25 54
34 66 14 3 -5 13 -10 22 -10 14 0 14 3 -2 20 -26 29 -69 26 -94 -6z"/>
<path d="M530 1205 l0 -65 35 0 c19 0 35 5 35 10 0 6 -11 10 -25 10 -24 0 -25
3 -25 55 0 30 -4 55 -10 55 -6 0 -10 -28 -10 -65z"/>
<path d="M690 1205 c0 -51 3 -65 15 -65 12 0 15 14 15 65 0 51 -3 65 -15 65
-12 0 -15 -14 -15 -65z"/>
<path d="M837 1252 c-22 -25 -21 -75 1 -95 23 -21 75 -22 92 -2 16 20 5 32
-14 16 -8 -7 -27 -11 -43 -9 -51 6 -41 88 11 88 12 0 27 -5 34 -12 6 -6 15 -8
19 -4 12 12 -27 36 -57 36 -15 0 -34 -8 -43 -18z"/>
<path d="M1050 1205 c0 -37 4 -65 10 -65 6 0 10 12 10 28 l1 27 20 -27 c11
-16 28 -28 37 -28 12 0 8 9 -16 32 l-32 32 32 33 c19 20 26 33 18 33 -8 0 -24
-12 -37 -27 l-22 -28 -1 28 c0 15 -4 27 -10 27 -6 0 -10 -28 -10 -65z"/>
<path d="M1273 1253 c-3 -10 -14 -39 -24 -65 -16 -41 -17 -48 -4 -48 8 0 15 7
15 15 0 10 10 15 30 15 20 0 30 -5 30 -15 0 -8 6 -15 14 -15 12 0 9 13 -10 62
-13 34 -24 63 -24 65 0 11 -22 0 -27 -14z m32 -50 c5 -19 2 -23 -14 -23 -23 0
-24 3 -15 38 7 26 18 20 29 -15z"/>
<path d="M1450 1205 l0 -65 30 0 c17 0 30 5 30 11 0 6 -9 9 -20 6 -18 -5 -20
0 -20 54 0 33 -4 59 -10 59 -6 0 -10 -28 -10 -65z"/>
<path d="M1634 1262 c-15 -10 -34 -47 -34 -66 0 -23 36 -56 62 -56 12 0 30 -7
40 -17 22 -20 36 -10 18 12 -10 12 -10 19 -2 27 18 18 14 73 -6 91 -19 18 -59
22 -78 9z m64 -24 c19 -19 15 -66 -8 -78 -40 -22 -83 27 -60 70 12 22 49 27
68 8z"/>
<path d="M1832 1214 c5 -58 16 -74 54 -74 30 0 41 17 46 78 4 39 2 52 -8 52
-10 0 -14 -15 -14 -54 0 -59 -17 -78 -46 -49 -12 12 -14 27 -9 60 5 36 4 43
-11 43 -14 0 -16 -8 -12 -56z"/>
<path d="M2040 1205 c0 -37 4 -65 10 -65 6 0 10 28 10 65 0 37 -4 65 -10 65
-6 0 -10 -28 -10 -65z"/>
<path d="M2170 1205 l0 -65 36 0 c23 0 33 4 28 11 -3 6 -15 9 -25 6 -17 -5
-19 1 -19 54 0 33 -4 59 -10 59 -6 0 -10 -28 -10 -65z"/>
<path d="M2330 1205 l0 -65 41 0 c24 0 38 4 34 10 -3 6 -17 10 -31 10 -36 0
-33 37 4 43 l27 4 -27 2 c-38 2 -41 41 -3 41 14 0 25 5 25 10 0 6 -16 10 -35
10 l-35 0 0 -65z"/>
<path d="M2510 1205 c0 -37 4 -65 10 -65 6 0 10 11 10 25 0 14 4 25 8 25 5 0
15 -11 22 -25 7 -14 17 -25 22 -25 11 0 10 7 -4 29 -9 15 -8 22 5 36 9 9 17
20 17 25 0 18 -33 40 -61 40 l-29 0 0 -65z m65 25 c0 -8 -10 -16 -22 -18 -18
-3 -23 2 -23 18 0 16 5 21 23 18 12 -2 22 -10 22 -18z"/>
<path d="M2640 1160 c0 -8 53 -159 75 -212 10 -25 20 -22 34 8 l12 27 28 -27
c27 -26 28 -26 44 -8 22 24 21 31 -4 58 l-21 22 33 18 34 17 -70 33 c-117 55
-165 73 -165 64z m118 -61 c75 -34 85 -44 52 -54 -26 -8 -25 -23 2 -52 16 -17
19 -26 11 -34 -8 -8 -16 -4 -28 15 -21 31 -41 33 -50 5 -4 -12 -11 -17 -15
-13 -16 17 -69 176 -57 171 7 -3 45 -20 85 -38z"/>
<path d="M565 980 c-32 -35 13 -84 51 -55 17 13 16 14 -13 9 -31 -6 -33 -5
-33 21 0 26 2 27 33 21 30 -5 31 -5 13 9 -25 19 -29 19 -51 -5z"/>
<path d="M707 989 c-23 -13 -22 -56 2 -69 25 -13 67 19 58 43 -9 24 -40 37
-60 26z m41 -32 c4 -20 -25 -34 -40 -19 -15 15 -1 44 19 40 10 -2 19 -11 21
-21z"/>
<path d="M879 973 l0 -28 -16 23 c-23 32 -33 27 -32 -15 1 -36 2 -36 8 -9 l6
29 14 -26 c20 -38 31 -33 31 13 0 44 -10 56 -11 13z"/>
<path d="M961 950 c1 -25 4 -35 6 -23 2 12 12 24 21 26 15 4 15 5 0 6 -22 1
-24 21 -3 21 8 0 15 4 15 9 0 6 -9 9 -20 8 -17 -1 -20 -8 -19 -47z"/>
<path d="M1067 993 c-11 -10 -8 -73 3 -73 6 0 10 18 10 40 0 41 -2 45 -13 33z"/>
<path d="M1392 959 c2 -32 8 -45 21 -47 9 -2 17 1 17 7 0 6 -7 11 -16 11 -12
0 -15 7 -12 30 3 17 1 33 -4 36 -5 3 -8 -14 -6 -37z"/>
<path d="M1497 993 c-14 -13 -7 -71 9 -77 21 -8 24 -8 24 4 0 6 -7 10 -15 10
-21 0 -19 18 3 23 16 4 16 5 0 6 -22 1 -24 21 -3 21 8 0 15 5 15 10 0 11 -23
14 -33 3z"/>
<path d="M1680 990 c-16 -10 -6 -40 15 -40 8 0 15 -5 15 -11 0 -6 -9 -9 -20
-6 -22 6 -28 -8 -7 -15 38 -15 49 21 15 46 l-23 17 23 -5 c12 -2 22 -1 22 4 0
12 -25 19 -40 10z"/>
<path d="M1797 993 c-14 -13 -7 -71 9 -77 21 -8 24 -8 24 4 0 6 -7 10 -15 10
-21 0 -19 18 3 23 16 4 16 5 0 6 -22 1 -24 21 -3 21 8 0 15 5 15 10 0 11 -23
14 -33 3z"/>
<path d="M1906 984 c-21 -21 -20 -37 3 -58 15 -14 24 -15 40 -6 28 15 27 40
-1 39 -13 0 -17 -3 -10 -6 19 -8 14 -23 -9 -23 -15 0 -20 5 -17 23 2 18 9 22
33 20 28 -2 29 -1 11 12 -25 19 -31 19 -50 -1z"/>
<path d="M2082 968 c-2 -48 -32 -55 -32 -8 0 17 -4 30 -10 30 -18 0 -11 -59 8
-69 29 -15 44 2 39 45 l-4 39 -1 -37z"/>
<path d="M2286 984 c-9 -8 -16 -22 -16 -29 0 -13 26 -45 36 -45 20 0 44 25 44
45 0 14 -8 29 -19 35 -25 13 -27 13 -45 -6z m47 -16 c7 -21 -4 -38 -24 -38
-14 0 -19 7 -19 25 0 18 5 25 19 25 11 0 21 -6 24 -12z"/>
<path d="M1157 973 c-2 -10 -8 -25 -11 -33 -5 -13 1 -16 27 -16 34 0 34 0 24
33 -11 36 -32 44 -40 16z"/>
<path d="M1270 955 c0 -30 3 -35 24 -35 31 0 36 8 29 43 -4 20 -11 27 -29 27
-21 0 -24 -5 -24 -35z"/>
<path d="M2161 953 c1 -21 4 -29 6 -19 5 19 6 19 22 -2 16 -22 16 -22 17 18 1
36 -1 40 -22 40 -21 0 -24 -4 -23 -37z"/>
</g>
</svg>
